<svg width="24" height="22" fill="none" xmlns="http://www.w3.org/2000/svg"><path d="M.8 0C.358 0 0 .36 0 .805c0 .444.358.805.8.805h2.658c1.324 3.3 2.629 6.604 3.942 9.91l-1.208 2.926a.824.824 0 00.073.758c.146.22.406.358.668.357h13.334c.422.006.811-.38.811-.805 0-.425-.389-.81-.811-.805H8.133l.692-1.66 12.842-1.031a.824.824 0 00.716-.62l1.6-6.976c.105-.47-.304-.983-.783-.981H5.608L4.742.503A.82.82 0 004 0H.8zm5.45 4.293h15.942L20.95 9.709l-12.158.972L6.25 4.293zM9.6 16.634c-1.463 0-2.667 1.21-2.667 2.683C6.933 20.79 8.137 22 9.6 22c1.463 0 2.667-1.21 2.667-2.683 0-1.472-1.204-2.683-2.667-2.683zm8 0c-1.463 0-2.667 1.21-2.667 2.683C14.933 20.79 16.137 22 17.6 22c1.463 0 2.667-1.21 2.667-2.683 0-1.472-1.204-2.683-2.667-2.683zm-8 1.61c.599 0 1.067.47 1.067 1.073 0 .602-.468 1.073-1.067 1.073-.598 0-1.067-.47-1.067-1.073 0-.602.469-1.073 1.067-1.073zm8 0c.599 0 1.067.47 1.067 1.073 0 .602-.468 1.073-1.067 1.073s-1.067-.47-1.067-1.073c0-.602.468-1.073 1.067-1.073z" fill="#676F77"/></svg>