<svg width="48" height="48" fill="none" xmlns="http://www.w3.org/2000/svg"><path d="M44.377 19.315h-.987v-5.917a2.959 2.959 0 00-2.958-2.959H26.626a2.958 2.958 0 00-2.959 2.959v5.917h-.986a2.958 2.958 0 00-2.958 2.958v1.972h-4.93a1.972 1.972 0 01-1.973-1.972v-9.861a2.958 2.958 0 002.958-2.959V8.368a4.93 4.93 0 003.945-4.832V1.564a.986.986 0 00-.986-.986H.987A.986.986 0 000 1.564v1.972a4.93 4.93 0 003.945 4.832v1.085a2.958 2.958 0 002.958 2.959v10.847a6.903 6.903 0 006.903 6.903h5.917v1.973a2.959 2.959 0 002.958 2.958h.986v5.917a2.959 2.959 0 001.973 2.78v1.164a2.958 2.958 0 002.958 2.959h9.862a2.958 2.958 0 002.958-2.959v-1.163a2.959 2.959 0 001.972-2.781v-5.917h.986a2.958 2.958 0 002.959-2.959v-9.86a2.959 2.959 0 00-2.959-2.96zm-18.737-.987h15.778V36.08H25.64V18.33zm0-4.93a.986.986 0 01.986-.986h13.806a.986.986 0 01.986.986v2.958H25.64v-2.958zM1.972 3.536V2.55h15.779v.986a2.958 2.958 0 01-2.19 2.84 2.959 2.959 0 00-2.741-1.854H6.903a2.958 2.958 0 00-2.741 1.854 2.958 2.958 0 01-2.19-2.84zm3.945 5.917V7.481a.986.986 0 01.986-.986h5.917a.986.986 0 01.986.986v1.972a.986.986 0 01-.986.986H6.903a.986.986 0 01-.986-.986zm7.889 18.737a4.93 4.93 0 01-4.93-4.93V12.411h1.972v9.861a3.945 3.945 0 003.944 3.945h4.93v1.972h-5.916zm8.875 4.93a.986.986 0 01-.986-.985v-9.862a.986.986 0 01.986-.986h.986V33.12h-.986zm16.765 11.834a.986.986 0 01-.986.987h-9.862a.986.986 0 01-.986-.987v-.986h11.834v.986zm1.972-3.944a.986.986 0 01-.986.986H26.626a.986.986 0 01-.986-.986v-2.96h15.778v2.959zm3.945-8.875a.986.986 0 01-.986.986h-.987V21.287h.986a.986.986 0 01.987.986v9.862z" fill="#474747"/><path d="M33.529 41.01a.986.986 0 100-1.973.986.986 0 000 1.973zm1.972-27.612h-3.944a.986.986 0 000 1.972H35.5a.986.986 0 000-1.972z" fill="#474747"/></svg>