<svg width="60" height="37" fill="none" xmlns="http://www.w3.org/2000/svg"><path fill-rule="evenodd" clip-rule="evenodd" d="M0 14.987V26.07h.923H0v.025a2.74 2.74 0 00.01.2 5.462 5.462 0 00.55 2.035 4.16 4.16 0 001.41 1.625c.687.458 1.562.732 2.647.732h6.331c1.006 3.459 4.21 6.003 7.983 6.003h21.24c3.773 0 6.978-2.544 7.984-6.003h6.33c1.086 0 1.96-.274 2.648-.732a4.164 4.164 0 001.41-1.625 5.46 5.46 0 00.55-2.036 4.136 4.136 0 00.01-.199v-.024l-.924-.001h.924V14.987h-.924.924v-.025a2.136 2.136 0 00-.01-.2 5.46 5.46 0 00-.55-2.036 4.164 4.164 0 00-1.41-1.624c-.687-.458-1.563-.732-2.648-.732h-6.33c-1.006-3.459-4.21-6.003-7.984-6.003H20.317V3.43c.003-.027.007-.07.016-.124a1.37 1.37 0 01.117-.374.7.7 0 01.235-.28c.091-.06.255-.133.555-.133h2.762l.022.001a1.348 1.348 0 01.497.132.7.7 0 01.28.235c.06.092.133.256.133.556h1.847c0-.624-.159-1.153-.444-1.58a2.544 2.544 0 00-.99-.862 3.192 3.192 0 00-1.285-.328h-.05c-.001 0-.002 0-.002.923V.673h-2.77c-.623 0-1.152.159-1.58.444-.422.281-.692.65-.862.99a3.19 3.19 0 00-.327 1.285v.017l-.001.014v.019c0 .001 0 .002.923.002h-.923v.936c-3.571.197-6.557 2.673-7.522 5.99h-6.33c-1.086 0-1.96.274-2.648.732a4.164 4.164 0 00-1.41 1.625 5.462 5.462 0 00-.55 2.036 4.036 4.036 0 00-.01.199v.024l.923.001H0zm10.62 13.39c0 .155.004.31.013.462H4.617c-.761 0-1.272-.188-1.623-.422a2.32 2.32 0 01-.783-.914 3.618 3.618 0 01-.364-1.423V14.976l.005-.082a3.618 3.618 0 01.36-1.341 2.32 2.32 0 01.782-.914c.351-.234.862-.422 1.623-.422h6.016a8.316 8.316 0 00-.013.461v15.7zm43.865.462H48.47a8.32 8.32 0 00.013-.462V12.678c0-.155-.005-.309-.013-.461h6.015c.762 0 1.272.188 1.624.422.357.238.606.562.783.914a3.62 3.62 0 01.363 1.423V26.08a3.603 3.603 0 01-.045.415 3.62 3.62 0 01-.318 1.008 2.32 2.32 0 01-.783.914c-.352.234-.862.422-1.624.422zm-42.018-.462c0 3.554 2.911 6.465 6.464 6.465h21.24c3.554 0 6.465-2.911 6.465-6.465V12.678c0-3.553-2.911-6.464-6.465-6.464h-21.24c-3.553 0-6.464 2.91-6.464 6.464v15.7zm6.464 5.541c-3.05 0-5.54-2.49-5.54-5.54v-15.7c0-3.05 2.49-5.54 5.54-5.54h21.24c3.05 0 5.541 2.49 5.541 5.54v1.847h-1.847v-1.847a3.707 3.707 0 00-3.694-3.694h-21.24a3.708 3.708 0 00-3.694 3.694v15.7a3.708 3.708 0 003.694 3.693h21.24a3.707 3.707 0 003.694-3.693V23.76h1.847v4.617c0 3.05-2.491 5.541-5.54 5.541h-21.24zm25.396-17.546a1.385 1.385 0 110 2.77 1.385 1.385 0 010-2.77zm-8.311 9.697a3.21 3.21 0 01-3.232-3.232h1.846c0 .782.603 1.385 1.386 1.385.783 0 1.385-.603 1.385-1.385 0-.783-.602-1.386-1.385-1.386v-1.847a3.21 3.21 0 013.232 3.233 3.21 3.21 0 01-3.232 3.232zM24.472 15.91a1.385 1.385 0 110-2.771 1.385 1.385 0 010 2.77zm-3.232-1.386a3.232 3.232 0 106.464 0 3.232 3.232 0 00-6.464 0zm6.926 5.541a.923.923 0 101.847 0 .923.923 0 00-1.847 0zm.924 2.77a2.77 2.77 0 110-5.54 2.77 2.77 0 010 5.54zm-9.235 0a2.776 2.776 0 002.77 2.771 2.776 2.776 0 002.77-2.77H23.55a.929.929 0 01-.924.923.929.929 0 01-.923-.923c0-.506.417-.924.923-.924v-1.847a2.776 2.776 0 00-2.77 2.77zm8.773 4.156a.923.923 0 101.847 0 .923.923 0 00-1.847 0zm.923 2.77a2.77 2.77 0 110-5.54 2.77 2.77 0 010 5.54zm1.847-14.313a2.776 2.776 0 002.77 2.77 2.776 2.776 0 002.771-2.77h-1.847a.929.929 0 01-.923.923.929.929 0 01-.924-.923.93.93 0 01.924-.924v-1.847a2.776 2.776 0 00-2.77 2.77z" fill="#474747"/></svg>