<svg width="41" height="47" fill="none" xmlns="http://www.w3.org/2000/svg"><path d="M36.537 5.074V4.063H32.33V2.669H21.479V.056H10.85v2.613H0V18.7h10.85v2.612h3.207v7.972h-1.435V47h7.086V29.285h-1.435v-7.972h2.09c1.115.62 6.56 3.543 9.974 3.543 3.673 0 9.124-3.55 9.74-11.445.468-5.988-2.175-7.8-3.54-8.337zm-12.4-.634h6.421v12.49h-6.422V4.44zM12.621 1.827h7.086v.842h-7.086v-.842zM1.772 16.93V4.44h20.593v12.49H1.77zm16.164 28.3h-3.543V31.056h3.543v14.171zm-1.435-15.944h-.673v-7.972h.673v7.972zm3.207-9.743h-7.086V18.7h7.086v.84zm18.603-6.27c-.529 6.769-4.981 9.813-7.974 9.813-2.753 0-7.42-2.404-8.858-3.182v-1.202H32.33V7.474h4.207v-.386c.916.68 2.076 2.31 1.774 6.185z" fill="#474747"/><path d="M27.347 8.028a2.66 2.66 0 00-2.657 2.657 2.66 2.66 0 002.657 2.657 2.66 2.66 0 002.657-2.657 2.66 2.66 0 00-2.657-2.657zm0 3.542a.887.887 0 010-1.77.887.887 0 010 1.77z" fill="#474747"/></svg>