<svg width="31" height="41" fill="none" xmlns="http://www.w3.org/2000/svg"><path d="M3.435 2.956V13.97L0 17.05v2.829c0 1.162.91 2.07 2.071 2.07.05 0 .05 0 .05.051v1.97L0 25.89v12.073c0 .808.303 1.515.859 2.071a2.948 2.948 0 002.07.859h24.55a2.86 2.86 0 002.072-.859 2.948 2.948 0 00.859-2.071V2.956a2.932 2.932 0 00-2.93-2.93H6.365c-1.566 0-2.93 1.314-2.93 2.93zm24.095-.909c.505 0 .91.404.91.91v35.006a.96.96 0 01-.253.657.96.96 0 01-.657.252H2.98a.96.96 0 01-.656-.252.96.96 0 01-.253-.657V26.799l1.465-1.364c.404-.404.657-.96.657-1.515V22c0-1.161-.91-2.07-2.071-2.07-.05 0-.05 0-.05-.051v-1.92l3.434-3.081V2.956c0-.505.404-.909.91-.909H27.53z" fill="#474747"/><path d="M6.314 4.775v9.395h2.02V4.776h-2.02zm3.183 0v9.395h2.02V4.776h-2.02zm3.183 0v9.395h2.02V4.776h-2.02zm3.181-1.667V14.17h2.021V3.107h-2.02zm3.183 1.667v9.395h2.02V4.776h-2.02zm3.182-1.667V14.17h2.02V3.107h-2.02zm3.132 1.667v9.395h2.02V4.776h-2.02z" fill="#474747"/></svg>