<svg width="16" height="16" fill="none" xmlns="http://www.w3.org/2000/svg"><path d="M11.41 1.328c-.163 0-.326.01-.488.029C9.197 1.563 8.382 2.505 8 3.314c-.384-.81-1.197-1.75-2.924-1.956a4.109 4.109 0 00-.414-.028H4.59c-4.253 0-8.107 6.543 3.373 13.327a.095.095 0 00.037.015.07.07 0 01.037-.015C19.516 7.872 15.665 1.33 11.41 1.328zM8 13.8c-2.765-1.68-4.728-3.427-5.856-5.21-.915-1.436-1.211-2.832-.871-4.036A3.394 3.394 0 012.509 2.77a3.496 3.496 0 012.081-.693h.055c.112.003.224.01.335.024 1.126.135 1.907.65 2.325 1.529L8 5.088l.69-1.458c.417-.88 1.2-1.394 2.325-1.529.132-.015.264-.023.396-.024a3.496 3.496 0 012.083.697 3.394 3.394 0 011.233 1.79c.34 1.198.038 2.598-.872 4.036-1.127 1.773-3.092 3.521-5.855 5.2z" fill="#676F77" stroke="#676F77" stroke-width=".5"/></svg>