<svg width="40" height="40" fill="none" xmlns="http://www.w3.org/2000/svg"><circle cx="20" cy="20" r="19.5" stroke="#686868"/><path fill-rule="evenodd" clip-rule="evenodd" d="M13.103 15.2H11.09c-.575 0-.69.277-.69.584 0 .546.682 3.256 3.178 6.841 1.663 2.448 4.006 3.775 6.14 3.775 1.279 0 1.437-.295 1.437-.802v-1.85c0-.59.121-.708.526-.708.299 0 .81.153 2.005 1.334 1.365 1.399 1.59 2.026 2.358 2.026h2.012c.576 0 .863-.295.697-.876-.181-.58-.833-1.421-1.698-2.418-.469-.569-1.172-1.18-1.386-1.487-.298-.393-.213-.568 0-.918 0 0 2.453-3.54 2.709-4.743.128-.437 0-.758-.61-.758h-2.012c-.512 0-.748.277-.876.584 0 0-1.023 2.557-2.474 4.218-.469.48-.682.634-.938.634-.128 0-.313-.153-.313-.59v-4.088c0-.524-.149-.758-.575-.758h-3.163a.49.49 0 00-.513.474c0 .498.725.612.8 2.011v3.038c0 .667-.117.787-.373.787-.683 0-2.342-2.569-3.327-5.508-.193-.571-.386-.802-.901-.802z" fill="#686868"/></svg>