<svg width="40" height="40" fill="none" xmlns="http://www.w3.org/2000/svg"><path d="M39.5 20c0 10.77-8.73 19.5-19.5 19.5S.5 30.77.5 20 9.23.5 20 .5 39.5 9.23 39.5 20z" stroke="#686868"/><path fill-rule="evenodd" clip-rule="evenodd" d="M11.243 19.831c4.664-2.032 7.774-3.372 9.33-4.02 4.444-1.847 5.367-2.168 5.969-2.179.132-.002.428.03.62.186a.674.674 0 01.228.434c.02.124.047.408.026.63-.24 2.53-1.282 8.669-1.812 11.502-.225 1.2-.666 1.601-1.094 1.64-.929.086-1.635-.613-2.534-1.203-1.409-.923-2.204-1.498-3.571-2.399-1.58-1.04-.556-1.613.345-2.548.235-.244 4.329-3.968 4.408-4.306.01-.042.02-.2-.074-.283-.094-.083-.232-.055-.331-.032-.142.032-2.391 1.519-6.75 4.46-.638.44-1.216.653-1.735.642-.57-.013-1.67-.323-2.487-.589-1.002-.325-1.798-.498-1.729-1.05.036-.289.433-.584 1.19-.885z" fill="#686868"/></svg>