<svg width="40" height="40" fill="none" xmlns="http://www.w3.org/2000/svg"><circle cx="20" cy="20" r="19.5" stroke="#686868"/><path d="M20 12.13c2.563 0 2.867.01 3.88.056.935.042 1.443.199 1.782.33.448.174.768.382 1.104.718.336.336.544.656.718 1.104.131.338.287.847.33 1.783.046 1.012.056 1.316.056 3.879 0 2.563-.01 2.867-.056 3.88-.043.935-.199 1.443-.33 1.782a2.975 2.975 0 01-.718 1.104 2.976 2.976 0 01-1.104.718c-.339.131-.847.287-1.783.33-1.012.046-1.316.056-3.88.056-2.563 0-2.866-.01-3.878-.056-.936-.043-1.445-.199-1.783-.33a2.975 2.975 0 01-1.104-.719 2.974 2.974 0 01-.718-1.103c-.131-.339-.288-.847-.33-1.783-.047-1.012-.056-1.316-.056-3.88 0-2.562.01-2.866.056-3.878.042-.936.199-1.445.33-1.783.174-.448.382-.768.718-1.104a2.974 2.974 0 011.104-.718c.338-.131.847-.288 1.783-.33 1.012-.047 1.316-.056 3.879-.056zm0-1.73c-2.607 0-2.934.011-3.958.058-1.022.046-1.72.209-2.33.446a4.707 4.707 0 00-1.7 1.107 4.706 4.706 0 00-1.108 1.7c-.237.611-.4 1.309-.446 2.33-.047 1.025-.058 1.352-.058 3.959s.011 2.934.058 3.958c.046 1.022.209 1.72.446 2.33a4.705 4.705 0 001.107 1.7c.534.534 1.07.863 1.7 1.108.611.237 1.309.4 2.33.446 1.025.047 1.352.058 3.959.058s2.934-.011 3.958-.058c1.022-.047 1.72-.209 2.33-.446a4.705 4.705 0 001.7-1.107 4.705 4.705 0 001.108-1.7c.237-.611.4-1.31.446-2.331.047-1.024.058-1.35.058-3.958 0-2.607-.011-2.934-.058-3.958-.047-1.022-.209-1.72-.446-2.33a4.706 4.706 0 00-1.107-1.7 4.707 4.707 0 00-1.7-1.108c-.611-.237-1.31-.4-2.331-.446-1.024-.047-1.35-.058-3.958-.058z" fill="#686868"/><path d="M20.005 15.075a4.93 4.93 0 100 9.86 4.93 4.93 0 000-9.86zm0 8.13a3.2 3.2 0 110-6.4 3.2 3.2 0 010 6.4zm6.275-8.328a1.152 1.152 0 11-2.304 0 1.152 1.152 0 012.305 0z" fill="#686868"/></svg>