<svg width="23" height="22" fill="none" xmlns="http://www.w3.org/2000/svg"><path d="M21.483 17.659c0-1.962-1.613-3.552-3.602-3.552-.267 0-.526.03-.776.083l-2.388-2.354 6.48-6.388a2.805 2.805 0 000-4.007 2.885 2.885 0 00-2.032-.83 2.89 2.89 0 00-2.033.83l-6.48 6.388L3.272.553A1.925 1.925 0 001.916 0C1.426 0 .935.184.56.553a1.87 1.87 0 000 2.672L7.942 10.5.961 17.382v4.007h4.065l6.981-6.882 2.367 2.333a3.504 3.504 0 00-.097.819c0 4.022 6.017 4.341 8.007 4.341 1.99 0-.8-2.38-.8-4.341zM19.165 1.555c.512 0 .992.197 1.355.554a1.873 1.873 0 010 2.671l-.678.668-2.71-2.672.678-.667a1.919 1.919 0 011.355-.554zM1.239 2.557a.936.936 0 010-1.336.96.96 0 01.678-.277.96.96 0 01.677.277l7.38 7.276L8.62 9.832 1.239 2.557zm.68 17.888v-.783l.794.783h-.794zm2.71 0h-.561l-2.149-2.118v-.554L16.455 3.444l1.02 1.005L4.35 17.385a.467.467 0 000 .668.485.485 0 00.678 0L18.15 5.117l1.014.998-14.536 14.33zm8.055-6.605l1.355-1.336 2.084 2.054a3.596 3.596 0 00-1.365 1.326l-2.074-2.044zm5.156 6.603c-.833-.277-1.475-.637-1.909-1.072-.468-.468-.695-1.028-.695-1.712 0-.696.274-1.351.774-1.844a2.648 2.648 0 011.87-.763c1.46 0 2.645 1.17 2.645 2.607 0 1.075.582 2.124 1.049 2.966.07.126.154.278.23.424-1.03-.026-2.593-.15-3.963-.606z" fill="#F77D0C"/></svg>