<svg width="51" height="51" fill="none" xmlns="http://www.w3.org/2000/svg"><path d="M50.852 27.564l-3.517-5.276a.88.88 0 00-.732-.391H38.69V6.948a1.555 1.555 0 00-.148-.488l-3.517-5.275a.879.879 0 00-.732-.392H16.707a.88.88 0 00-.732.392L12.458 6.46a.447.447 0 00-.054.11.866.866 0 00-.094.378v14.949H4.397a.878.878 0 00-.732.391L.148 27.564a1.571 1.571 0 00-.148.488v21.103a.88.88 0 00.88.88h49.24a.88.88 0 00.88-.88V28.052a1.57 1.57 0 00-.148-.488zm-2.374-.392h-7.285l-.586-3.517h5.526l2.345 3.517zm-12.426 1.76h3.517v6.27l-1.27-.847a.88.88 0 00-.977 0l-1.27.847v-6.27zm2.772-5.277l.586 3.517h-.72v-3.517h.134zM33.823 2.552l2.345 3.517h-7.285l-.587-3.517h5.527zm-9.337 0h2.028l.585 3.517h-3.198l.585-3.517zm-.745 5.276h3.518v6.27l-1.271-.847a.88.88 0 00-.976 0l-1.27.847v-6.27zm-6.564-5.276h5.527l-.587 3.517h-7.285l2.345-3.517zM14.07 7.828h7.914v7.913a.879.879 0 001.367.732l2.15-1.435 2.15 1.433a.88.88 0 001.367-.73V7.829h7.914v19.345H14.069V7.828zM11.431 28.93h3.517v6.27l-1.27-.846a.88.88 0 00-.976 0l-1.271.847v-6.27zm.88-5.276v3.517h-.72l.585-3.517h.134zm-7.444 0h5.526l-.586 3.517H2.522l2.345-3.517zM1.759 28.93h7.913v7.914a.88.88 0 001.368.732l2.15-1.435 2.15 1.433a.88.88 0 001.367-.73V28.93h7.914v19.345H1.759V28.931zM49.24 48.276H26.38V28.931h7.914v7.914a.88.88 0 001.367.732l2.15-1.435 2.15 1.433a.88.88 0 001.368-.73V28.93h7.913v19.345z" fill="#E8610C"/></svg>