<svg width="51" height="54" fill="none" xmlns="http://www.w3.org/2000/svg"><path d="M17.416 36.184c.267 0 .526-.092.732-.263l7.09-5.855 7.078 5.855c.209.173.472.266.743.263a1.144 1.144 0 00.892-.423c.096-.116.168-.25.211-.394.044-.144.059-.295.044-.445a1.145 1.145 0 00-.415-.773l-7.387-6.107v-8.279a1.143 1.143 0 10-2.287 0v8.245l-7.399 6.106a1.143 1.143 0 00.698 2.07zM3.041 24.806h.252a1.143 1.143 0 001.143-.892 20.938 20.938 0 012.836-6.861l.069-.115a21.032 21.032 0 013.602-4.22l-.206 1.407a1.143 1.143 0 00.972 1.293h.16a1.144 1.144 0 001.144-.984l.606-4.357a1.143 1.143 0 00-.286-.938 1.143 1.143 0 00-.858-.4l-4.574.24a1.145 1.145 0 00.103 2.288l1.28-.058a22.974 22.974 0 00-3.921 4.654.468.468 0 000 .103 23.454 23.454 0 00-3.18 7.479 1.144 1.144 0 00.858 1.36zM35.655 9.883a21.258 21.258 0 018.599 8.942c.194.378.343.766.515 1.144l-1.064-.663a1.174 1.174 0 10-1.212 2.012l3.796 2.367c.182.113.392.173.607.172a.982.982 0 00.365-.057c.283-.087.52-.28.664-.538v-.149l1.646-4.265a1.143 1.143 0 10-2.127-.823l-.503 1.303a43.364 43.364 0 00-.686-1.498 23.694 23.694 0 00-9.537-9.903 1.152 1.152 0 00-1.143 2.002l.08-.046zm.835 36.798a20.984 20.984 0 01-12.43 3.157c-1.76-.108-3.5-.43-5.18-.961l1.04-.343a1.146 1.146 0 10-.732-2.173l-4.243 1.441a1.145 1.145 0 00-.709.675 1.145 1.145 0 00.08.96l2.287 3.98a1.144 1.144 0 00.995.583c.195 0 .387-.047.56-.137a1.146 1.146 0 00.435-1.567l-.777-1.372a23.85 23.85 0 006.14 1.143h1.338a23.659 23.659 0 0012.453-3.533 1.142 1.142 0 00.142-2.043 1.144 1.144 0 00-1.4.19zm-26.073-9.937a5.043 5.043 0 10-6.86 0A7.01 7.01 0 000 42.851v.492a1.143 1.143 0 001.143 1.143h11.779a1.143 1.143 0 001.143-1.143v-.492a7.044 7.044 0 00-3.648-6.107zm-3.43-6.392a2.756 2.756 0 11-.035 0h.035zM2.298 42.245a4.745 4.745 0 019.412 0H2.297zm17.039-25.707h11.779a1.144 1.144 0 001.143-1.143v-.504a7.033 7.033 0 00-3.602-6.152 5.043 5.043 0 10-6.861 0 7.055 7.055 0 00-3.602 6.152v.504a1.144 1.144 0 001.143 1.143zm5.832-14.18a2.756 2.756 0 11-1.933.803 2.756 2.756 0 011.945-.803h-.012zm.057 7.788a4.768 4.768 0 014.712 4.105h-9.4a4.768 4.768 0 014.7-4.105h-.012zm21.292 26.598a5.043 5.043 0 10-6.86 0 7.032 7.032 0 00-3.557 6.107v.492a1.143 1.143 0 001.143 1.143h11.779a1.143 1.143 0 001.143-1.143v-.492a7.056 7.056 0 00-3.648-6.107zm-3.43-6.392a2.756 2.756 0 11-.046 0h.046zm-4.689 11.893a4.745 4.745 0 019.411 0H38.4z" fill="#E8610C"/></svg>